<svg xmlns="http://www.w3.org/2000/svg" viewBox="0 0 51 51" id="retry"><circle cx="25.5" cy="25.5" r="24" fill="#334861"></circle><path fill="#1D364C" d="M41.806 23.041a.42.42 0 0 1 .34.667L37.37 30.29l-.644.888a.42.42 0 0 1-.68.001l-1.606-2.204-3.824-5.267a.42.42 0 0 1 .34-.667h3.072a.42.42 0 0 0 .378-.606 9.034 9.034 0 0 0-2.855-3.287 8.94 8.94 0 0 0-5.147-1.626c-5.217 0-9.422 4.477-8.951 9.79.394 4.446 4.08 7.958 8.54 8.156a8.888 8.888 0 0 0 6.04-1.987.417.417 0 0 1 .557.031l1.675 1.668a.422.422 0 0 1-.027.622 12.112 12.112 0 0 1-7.834 2.865c-6.72 0-12.177-5.457-12.177-12.167s5.457-12.167 12.177-12.167c3.946 0 7.456 1.885 9.682 4.815a12.067 12.067 0 0 1 1.897 3.599.422.422 0 0 0 .4.294h3.423z"></path><path fill="#FFF" d="M40.806 22.041a.42.42 0 0 1 .34.667L36.37 29.29l-.644.888a.42.42 0 0 1-.68.001l-1.606-2.204-3.824-5.267a.42.42 0 0 1 .34-.667h3.072a.42.42 0 0 0 .378-.606 9.034 9.034 0 0 0-2.855-3.287 8.94 8.94 0 0 0-5.147-1.626c-5.217 0-9.422 4.477-8.951 9.79.394 4.446 4.08 7.958 8.54 8.156a8.888 8.888 0 0 0 6.04-1.987.417.417 0 0 1 .557.031l1.675 1.668a.422.422 0 0 1-.027.622 12.112 12.112 0 0 1-7.834 2.865c-6.72 0-12.177-5.457-12.177-12.167s5.457-12.167 12.177-12.167c3.946 0 7.456 1.885 9.682 4.815a12.067 12.067 0 0 1 1.897 3.599.422.422 0 0 0 .4.294h3.423z"></path></svg>